<svg width="34" height="26" viewBox="0 0 34 26" fill="none" xmlns="http://www.w3.org/2000/svg">
<path d="M7.83333 10.6667C7.46166 10.6667 7.105 10.7233 6.75 10.775C6.865 10.3883 6.98333 9.99501 7.17333 9.64167C7.36333 9.12834 7.66 8.68334 7.955 8.23501C8.20166 7.75001 8.63666 7.42167 8.95666 7.00667C9.29166 6.60334 9.74833 6.33501 10.11 6.00001C10.465 5.65001 10.93 5.47501 11.3 5.22834C11.6867 5.00667 12.0233 4.76167 12.3833 4.64501C12.73 4.50167 13.0333 4.37834 13.2817 4.27501C13.785 4.06667 14.0717 3.94667 14.0717 3.94667L13.2633 0.716675C13.2633 0.716675 12.9 0.803341 12.2683 0.956674C11.95 1.03667 11.5617 1.13001 11.12 1.24167C10.6683 1.32501 10.1867 1.55334 9.65 1.76167C9.12 1.99834 8.50666 2.15834 7.93666 2.53834C7.36333 2.90167 6.70166 3.20501 6.11833 3.69167C5.55333 4.19334 4.87166 4.62834 4.36833 5.26667C3.81833 5.86334 3.275 6.49001 2.85333 7.20334C2.365 7.88334 2.03333 8.63001 1.68333 9.36834C1.36666 10.1067 1.11166 10.8617 0.903331 11.595C0.508331 13.065 0.331665 14.4617 0.263331 15.6567C0.206665 16.8533 0.239998 17.8483 0.309998 18.5683C0.334998 18.9083 0.381665 19.2383 0.414998 19.4667C0.443331 19.6483 0.456664 19.7467 0.456664 19.7467L0.499998 19.7367C1.225 23.1233 4.23 25.6667 7.83333 25.6667C11.975 25.6667 15.3333 22.3083 15.3333 18.1667C15.3333 14.025 11.975 10.6667 7.83333 10.6667ZM26.1667 10.6667C25.795 10.6667 25.4383 10.7233 25.0833 10.775C25.1983 10.3883 25.3167 9.99501 25.5067 9.64167C25.6967 9.12834 25.9933 8.68334 26.2883 8.23501C26.535 7.75001 26.97 7.42167 27.29 7.00667C27.625 6.60334 28.0817 6.33501 28.4433 6.00001C28.7983 5.65001 29.2633 5.47501 29.6333 5.22834C30.02 5.00667 30.3567 4.76167 30.7167 4.64501C31.0633 4.50167 31.3667 4.37834 31.615 4.27501C32.1183 4.06667 32.405 3.94667 32.405 3.94667L31.5967 0.716675C31.5967 0.716675 31.2333 0.803341 30.6017 0.956674C30.2833 1.03667 29.895 1.13001 29.4533 1.24167C29.0017 1.32501 28.52 1.55334 27.9833 1.76167C27.455 2.00001 26.84 2.15834 26.27 2.54001C25.6967 2.90334 25.035 3.20667 24.4517 3.69334C23.8867 4.19501 23.205 4.63001 22.7017 5.26667C22.1517 5.86334 21.6083 6.49001 21.1867 7.20334C20.6983 7.88334 20.3667 8.63001 20.0167 9.36834C19.7 10.1067 19.445 10.8617 19.2367 11.595C18.8417 13.065 18.665 14.4617 18.5967 15.6567C18.54 16.8533 18.5733 17.8483 18.6433 18.5683C18.6683 18.9083 18.715 19.2383 18.7483 19.4667C18.7767 19.6483 18.79 19.7467 18.79 19.7467L18.8333 19.7367C19.5583 23.1233 22.5633 25.6667 26.1667 25.6667C30.3083 25.6667 33.6667 22.3083 33.6667 18.1667C33.6667 14.025 30.3083 10.6667 26.1667 10.6667Z" fill="white"/>
</svg>
