<?xml version="1.0" standalone="no"?>
<!DOCTYPE svg PUBLIC "-//W3C//DTD SVG 20010904//EN"
 "http://www.w3.org/TR/2001/REC-SVG-20010904/DTD/svg10.dtd">
<svg version="1.0" xmlns="http://www.w3.org/2000/svg"
 width="2512.000000pt" height="2512.000000pt" viewBox="0 0 2512.000000 2512.000000"
 preserveAspectRatio="xMidYMid meet">
<metadata>
Created by potrace 1.14, written by Peter Selinger 2001-2017
</metadata>
<g transform="translate(0.000000,2512.000000) scale(0.100000,-0.100000)"
fill="#000000" stroke="none">
<path d="M11258 16395 c-1 -1 -34 -6 -73 -9 -38 -4 -77 -9 -85 -11 -8 -2 -31
-7 -50 -10 -29 -5 -83 -17 -175 -39 -71 -17 -293 -101 -309 -117 -6 -5 -18 -9
-27 -9 -10 0 -19 -3 -21 -7 -1 -5 -28 -21 -58 -37 -131 -69 -303 -200 -411
-313 -115 -121 -237 -285 -274 -370 -10 -24 -22 -43 -27 -43 -4 0 -7 -3 -6 -7
0 -5 -11 -35 -27 -68 -45 -97 -65 -145 -60 -145 2 0 -3 -17 -12 -37 -31 -76
-74 -256 -90 -378 -10 -79 -10 -414 0 -490 10 -76 14 -104 21 -135 3 -14 8
-38 11 -55 17 -85 65 -242 95 -310 5 -11 23 -51 39 -90 17 -38 35 -77 41 -85
5 -8 19 -33 31 -55 22 -43 116 -180 152 -223 23 -27 200 -204 227 -226 208
-171 513 -316 785 -371 79 -16 91 -18 108 -19 9 0 17 -3 17 -6 0 -3 15 -6 33
-7 17 -1 64 -5 102 -9 115 -13 550 -8 550 6 0 2 31 7 85 15 52 7 194 41 230
55 14 6 34 11 45 13 11 2 34 10 50 16 17 7 46 19 65 26 57 20 215 98 218 107
2 4 9 8 15 8 7 0 44 22 83 48 39 26 84 56 100 66 16 11 34 24 39 30 6 6 35 31
65 56 135 111 270 273 377 455 28 49 36 65 86 175 31 68 81 222 103 315 16 70
19 91 30 175 3 25 7 59 10 75 6 46 6 387 -1 415 -3 14 -8 45 -10 70 -3 39 -11
84 -32 180 -7 36 -8 40 -22 90 -7 25 -13 45 -12 45 0 0 -13 36 -30 80 -17 44
-31 85 -32 90 -11 47 -142 277 -212 370 -69 92 -207 232 -295 298 -30 23 -64
50 -74 60 -11 9 -25 17 -32 17 -7 0 -14 4 -16 9 -3 8 -169 106 -218 128 -146
65 -341 128 -460 148 -19 3 -42 8 -50 10 -8 2 -37 7 -65 10 -27 4 -63 9 -80
12 -35 5 -461 13 -467 8z m352 -769 c33 -5 102 -19 145 -29 62 -15 244 -95
265 -117 3 -3 28 -20 55 -39 60 -41 225 -206 225 -226 0 -2 12 -21 26 -42 63
-92 119 -233 150 -378 13 -58 17 -125 17 -245 0 -159 -5 -198 -48 -381 -13
-56 -112 -269 -134 -289 -3 -3 -24 -27 -46 -55 -81 -102 -174 -177 -300 -244
-44 -24 -82 -43 -85 -43 -3 0 -9 -2 -15 -4 -62 -20 -158 -45 -190 -49 -22 -3
-51 -8 -65 -10 -31 -5 -256 -6 -290 -1 -28 5 -42 8 -145 31 -140 31 -316 135
-439 258 -171 172 -275 381 -311 632 -14 91 -6 369 11 396 2 4 6 24 10 45 3
22 17 73 31 114 85 253 246 447 467 564 79 42 204 88 217 80 5 -3 9 0 9 5 0 6
3 10 8 9 4 -1 39 3 77 10 39 6 84 13 100 15 41 4 212 0 255 -7z"/>
<path d="M3493 14557 c-2 -1024 1 -1783 6 -1787 7 -4 2748 -5 2771 -1 3 1 6
172 6 381 0 336 -2 380 -16 381 -8 0 -449 1 -980 1 l-965 0 0 24 c0 13 3 24 7
24 4 0 3 12 -1 28 -4 15 -5 45 -4 67 2 22 3 47 3 55 0 8 0 74 0 145 0 72 0
135 0 140 0 6 -1 44 -2 85 l-2 75 877 3 877 2 0 383 0 382 -866 0 c-476 0
-871 3 -876 6 -12 8 -18 229 -6 229 7 0 6 19 -3 35 -6 14 -4 339 3 351 4 5
372 9 955 8 l948 0 0 380 0 381 -1365 2 -1365 1 -2 -1781z"/>
<path d="M6702 14554 c0 -1329 3 -1784 12 -1785 31 -3 792 -4 801 -2 7 2 10
286 10 848 0 465 1 845 2 845 1 0 108 -146 325 -445 32 -44 61 -84 65 -90 5
-5 28 -39 53 -73 25 -35 57 -79 73 -97 15 -18 27 -37 27 -43 0 -6 3 -12 8 -14
4 -2 25 -28 47 -58 21 -30 76 -106 122 -167 46 -62 83 -117 83 -123 0 -5 4
-10 9 -10 5 0 17 -13 28 -29 31 -50 106 -155 120 -169 7 -7 20 -26 30 -42 9
-17 21 -30 26 -30 4 0 5 -4 2 -10 -3 -5 -2 -10 4 -10 5 0 20 -17 32 -37 13
-21 26 -40 29 -43 3 -3 17 -21 30 -40 13 -19 29 -40 35 -46 5 -6 26 -34 45
-62 l35 -52 524 0 c417 0 521 3 514 13 -6 6 -48 62 -93 122 -46 61 -94 124
-107 140 -34 43 -36 46 -63 85 -14 19 -32 42 -40 51 -8 9 -24 29 -35 44 -11
16 -24 33 -30 39 -5 6 -30 38 -54 71 -25 33 -48 62 -53 63 -4 2 -8 8 -8 13 0
4 -34 52 -76 106 -42 54 -85 109 -95 123 -22 29 -183 242 -216 285 -13 17 -29
37 -36 45 -7 8 -60 78 -118 155 -57 77 -108 145 -114 152 -22 27 -36 45 -171
223 -125 166 -156 220 -125 220 4 0 39 39 77 88 37 48 76 94 86 103 10 9 18
21 18 27 0 6 3 12 8 14 4 2 28 28 52 58 25 30 48 57 51 60 3 3 46 55 94 115
49 61 92 112 97 113 4 2 8 10 8 18 0 8 3 14 8 14 4 0 29 28 57 63 27 34 54 67
60 73 5 6 24 29 40 50 17 21 37 45 45 54 8 8 44 51 78 95 35 44 74 91 85 105
12 14 42 50 67 80 25 31 51 62 57 70 7 8 36 44 65 80 29 36 55 67 58 70 3 3
23 28 45 55 21 28 42 52 45 55 13 12 88 108 104 132 l17 27 -488 -1 -488 0
-42 -56 c-23 -32 -49 -66 -57 -77 -36 -46 -72 -93 -91 -120 -11 -15 -27 -36
-35 -45 -8 -9 -19 -24 -25 -33 -14 -23 -167 -226 -185 -246 -8 -9 -40 -50 -70
-91 -30 -41 -59 -80 -65 -87 -21 -26 -31 -39 -55 -73 -13 -19 -27 -37 -30 -40
-3 -3 -33 -41 -65 -85 -33 -44 -64 -85 -70 -92 -16 -20 -24 -30 -165 -218 -74
-99 -139 -185 -145 -192 -26 -32 -33 -40 -49 -66 -10 -15 -21 -25 -25 -23 -3
2 -6 351 -5 774 l0 770 -412 0 -412 0 0 -1784z"/>
<path d="M13769 16334 c-1 -2 -3 -8 -4 -14 -1 -5 -3 -11 -5 -12 -6 -8 -4 -60
2 -64 5 -3 5 -10 2 -16 -10 -16 -11 -68 -1 -68 5 0 5 -5 2 -11 -11 -16 -12
-69 -2 -69 4 0 5 -5 2 -11 -11 -16 -12 -69 -2 -69 4 0 5 -5 2 -11 -11 -16 -12
-69 -2 -69 4 0 5 -5 1 -11 -10 -16 -11 -130 -1 -136 4 -2 5 -9 1 -14 -10 -17
-10 -78 0 -72 5 4 6 1 2 -5 -10 -17 -13 -92 -3 -92 4 0 5 -5 1 -11 -10 -17
-10 -138 0 -132 5 4 6 1 2 -5 -10 -17 -13 -92 -3 -92 4 0 4 -8 0 -17 -5 -10
-7 -40 -5 -68 4 -70 4 -76 0 -112 -2 -18 0 -33 5 -33 4 0 5 -5 2 -11 -11 -16
-12 -69 -2 -69 4 0 5 -5 2 -11 -11 -16 -12 -69 -2 -69 4 0 5 -5 2 -11 -11 -16
-12 -69 -2 -69 4 0 5 -5 2 -11 -11 -16 -12 -69 -2 -69 4 0 5 -5 2 -11 -11 -16
-12 -69 -2 -69 4 0 5 -5 2 -11 -11 -16 -12 -69 -2 -69 4 0 5 -5 1 -11 -10 -16
-11 -130 -1 -136 4 -2 5 -9 1 -14 -10 -17 -10 -78 0 -72 5 4 6 1 2 -5 -10 -17
-13 -92 -3 -92 4 0 5 -5 1 -11 -10 -17 -10 -138 0 -132 5 4 6 1 2 -5 -10 -17
-13 -92 -3 -92 4 0 4 -8 0 -17 -5 -10 -7 -40 -5 -68 4 -70 4 -76 0 -112 -2
-18 0 -33 5 -33 4 0 5 -5 2 -11 -11 -16 -12 -69 -2 -69 4 0 5 -5 2 -11 -11
-16 -12 -69 -2 -69 4 0 5 -5 2 -11 -11 -16 -12 -69 -2 -69 4 0 5 -5 2 -11 -11
-16 -12 -69 -2 -69 4 0 5 -5 2 -11 -11 -16 -12 -69 -2 -69 4 0 5 -5 2 -11 -11
-16 -12 -69 -2 -69 4 0 5 -5 1 -11 -10 -16 -11 -130 -1 -136 4 -2 5 -9 1 -14
-10 -17 -10 -78 0 -72 5 4 6 1 2 -5 -10 -17 -13 -92 -3 -92 4 0 5 -5 1 -11 -3
-6 -6 -35 -6 -64 0 -29 3 -58 6 -64 4 -6 4 -11 -1 -11 -4 0 -8 -20 -8 -45 0
-25 4 -45 8 -45 5 0 5 -4 2 -10 -8 -13 -47 -11 387 -13 328 -2 377 0 380 13 2
8 3 489 3 1068 0 578 2 1052 5 1052 3 -1 37 -41 75 -91 68 -87 83 -106 115
-146 8 -10 31 -38 50 -63 19 -25 37 -47 40 -50 3 -3 21 -25 40 -50 19 -25 41
-51 48 -59 8 -8 32 -39 55 -70 23 -31 44 -58 47 -61 4 -3 33 -39 65 -80 33
-41 64 -81 70 -88 5 -7 22 -27 38 -43 15 -16 27 -33 27 -37 0 -4 14 -22 30
-41 16 -18 42 -49 57 -68 148 -188 319 -399 325 -401 4 -2 8 -8 8 -13 0 -6 9
-20 21 -32 11 -12 39 -47 62 -77 23 -30 47 -60 52 -66 6 -6 24 -28 40 -49 17
-21 72 -91 122 -154 51 -64 96 -120 101 -126 27 -36 89 -112 97 -121 6 -6 21
-26 35 -44 14 -19 36 -47 49 -64 14 -17 26 -33 28 -35 4 -6 643 -7 652 -1 4 3
7 806 7 1785 l-1 1780 -385 2 -386 2 1 -1067 c0 -587 -1 -1070 -3 -1075 -2 -4
-38 37 -79 90 -42 54 -79 100 -82 103 -3 3 -18 21 -33 42 -15 20 -33 42 -40
50 -7 7 -29 34 -48 58 -19 25 -38 50 -42 55 -5 6 -49 62 -99 125 -50 63 -98
124 -107 135 -9 11 -51 63 -92 115 -40 52 -79 100 -85 107 -5 6 -21 26 -35 44
-14 18 -40 51 -58 73 -18 23 -40 51 -50 64 -9 12 -27 34 -39 47 -13 13 -23 27
-23 30 0 4 -6 12 -12 19 -7 7 -24 27 -38 45 -14 18 -37 46 -51 64 -22 26 -147
184 -176 222 -7 9 -49 62 -100 125 -50 63 -193 243 -213 269 -14 18 -30 38
-35 44 -6 7 -44 55 -85 107 -41 52 -78 98 -83 101 -10 7 -646 10 -648 3z"/>
<path d="M17317 16332 c-3 -4 -5 -808 -5 -1787 l1 -1780 396 2 c218 0 403 1
411 2 14 1 16 188 15 1784 l0 1782 -407 2 c-224 1 -409 -1 -411 -5z"/>
<path d="M18380 16328 c0 -5 11 -34 25 -64 14 -30 25 -56 25 -58 0 -2 8 -21
17 -42 9 -22 17 -41 18 -44 1 -3 6 -16 12 -30 6 -14 48 -113 93 -220 45 -107
107 -253 137 -325 30 -71 55 -136 56 -142 0 -7 4 -13 9 -13 4 0 7 -3 6 -7 -1
-5 8 -30 20 -57 12 -27 22 -50 22 -53 0 -2 9 -23 19 -46 10 -23 40 -94 65
-157 26 -63 51 -123 57 -134 6 -10 17 -35 24 -55 7 -20 21 -54 31 -76 10 -22
18 -42 19 -45 3 -8 22 -55 71 -168 25 -59 47 -111 48 -117 1 -5 10 -25 19 -42
10 -18 15 -33 11 -33 -4 0 -2 -6 4 -12 5 -7 26 -53 46 -103 21 -49 43 -103 50
-120 8 -16 31 -70 51 -120 20 -49 41 -99 46 -110 17 -40 38 -95 38 -100 0 -3
7 -18 15 -33 13 -26 111 -258 273 -647 41 -99 81 -193 89 -209 8 -16 14 -35
14 -43 0 -7 4 -13 10 -13 5 0 9 -3 8 -7 -2 -5 7 -33 20 -63 l22 -55 445 0
c299 0 445 3 445 10 0 9 44 120 79 200 5 11 16 36 24 55 17 40 138 328 172
410 46 112 56 135 65 155 5 11 21 49 36 85 14 36 34 83 44 105 16 39 31 75 35
85 5 14 27 67 35 85 23 50 60 136 60 139 0 2 8 21 17 42 9 22 17 41 18 44 0 3
11 27 23 54 12 27 22 51 22 53 0 2 11 29 25 59 14 30 25 57 25 60 0 3 6 20 14
37 8 18 40 93 71 167 31 74 62 149 70 165 7 17 25 59 39 95 15 36 31 74 36 85
5 11 32 76 61 145 28 69 60 144 70 167 11 23 19 44 19 47 0 3 11 30 25 60 26
57 41 94 45 111 1 6 10 26 21 46 10 20 15 39 12 43 -4 3 -1 6 5 6 7 0 12 8 12
18 0 10 4 22 8 28 5 5 21 41 37 79 16 39 37 90 48 115 57 133 70 164 72 175 1
6 12 30 23 55 12 25 37 83 56 130 19 47 42 101 50 122 l15 36 -440 0 -440 0
-25 -56 c-14 -32 -27 -61 -28 -67 -1 -5 -12 -31 -24 -57 -12 -26 -22 -50 -22
-53 0 -3 -9 -26 -20 -51 -23 -50 -42 -98 -40 -102 0 -1 -6 -15 -14 -30 -17
-31 -76 -167 -76 -176 0 -3 -11 -29 -24 -58 -20 -43 -74 -173 -131 -313 -5
-11 -7 -23 -7 -27 1 -5 -2 -8 -8 -8 -5 0 -10 -6 -10 -13 0 -12 -33 -94 -85
-212 -7 -16 -41 -97 -75 -180 -34 -82 -111 -265 -170 -405 -59 -140 -118 -282
-131 -315 -13 -33 -27 -61 -31 -63 -5 -2 -8 -10 -8 -18 0 -9 -11 -40 -25 -70
-14 -30 -25 -57 -25 -59 0 -2 -11 -28 -23 -57 -13 -29 -30 -68 -37 -85 -7 -18
-15 -33 -19 -33 -3 0 -15 21 -25 48 -50 123 -110 266 -145 344 -12 26 -21 50
-21 53 0 6 -30 76 -56 129 -8 16 -14 32 -14 36 0 4 -10 29 -22 56 -12 27 -23
51 -23 54 -2 7 -22 56 -42 100 -8 19 -19 44 -23 55 -4 11 -20 46 -34 78 -14
32 -26 60 -26 62 0 3 -25 65 -56 137 -71 172 -69 167 -87 208 -8 19 -43 103
-77 185 -35 83 -71 168 -80 190 -10 22 -41 96 -70 165 -28 69 -56 136 -62 150
-6 14 -12 27 -13 30 -1 3 -9 23 -19 45 -10 22 -25 58 -33 80 -9 22 -24 60 -35
85 -11 25 -23 54 -28 65 -4 11 -22 50 -38 86 l-30 67 -436 0 c-265 0 -436 -4
-436 -10z"/>
<path d="M22724 16126 c-49 -116 -87 -213 -86 -215 2 -2 -1 -7 -7 -11 -6 -3
-13 -16 -15 -27 -3 -11 -9 -29 -14 -39 -6 -11 -20 -44 -32 -74 -12 -30 -31
-74 -41 -97 -11 -23 -19 -45 -19 -48 0 -4 -12 -30 -26 -59 -14 -28 -26 -53
-26 -56 0 -6 -14 -42 -31 -80 -6 -14 -11 -27 -12 -30 -2 -6 1 2 -89 -212 -36
-86 -66 -162 -66 -168 0 -5 -4 -10 -10 -10 -5 0 -9 -3 -7 -8 2 -6 -50 -137
-98 -247 -14 -30 -37 -86 -40 -95 -1 -3 -9 -23 -19 -45 -32 -74 -36 -85 -46
-110 -16 -39 -27 -66 -54 -128 -14 -32 -26 -64 -26 -72 0 -8 -4 -15 -10 -15
-5 0 -10 -8 -10 -18 0 -10 -3 -22 -7 -26 -5 -4 -8 -11 -9 -14 0 -4 -5 -18 -11
-32 -6 -14 -27 -63 -46 -110 -20 -47 -44 -103 -53 -125 -10 -22 -18 -42 -19
-45 -1 -3 -7 -16 -13 -30 -6 -14 -36 -86 -67 -160 -31 -74 -60 -143 -65 -152
-6 -10 -10 -25 -10 -33 0 -8 -5 -15 -12 -15 -6 0 -9 -3 -6 -6 4 -3 -14 -51
-38 -106 -24 -56 -44 -107 -44 -114 0 -8 -4 -14 -8 -14 -5 0 -9 -6 -9 -12 0
-7 -12 -40 -27 -73 -15 -33 -31 -69 -35 -80 -5 -11 -14 -33 -21 -50 -8 -16
-14 -34 -16 -40 -1 -5 -25 -63 -53 -128 -28 -65 -51 -120 -51 -122 0 -3 185
-5 410 -5 382 0 411 1 417 18 3 9 15 37 26 62 12 25 22 50 23 55 1 6 8 24 15
40 7 17 13 32 14 35 5 15 18 48 26 65 4 11 31 79 59 150 28 72 55 139 60 150
5 11 19 45 30 75 11 30 26 65 32 77 l11 22 451 1 c248 1 458 1 466 1 8 0 62 0
120 0 58 0 114 0 125 0 11 0 75 0 143 -1 108 0 123 -2 128 -18 11 -30 34 -86
49 -115 8 -16 13 -33 9 -38 -3 -5 0 -9 5 -9 6 0 11 -7 11 -15 0 -8 4 -23 9
-33 5 -9 25 -57 44 -107 93 -238 160 -401 168 -410 10 -10 869 -14 869 -4 0 8
-93 234 -126 307 -13 29 -24 56 -24 60 0 5 -11 32 -25 60 -14 29 -25 55 -25
58 0 3 -7 20 -15 37 -15 34 -196 463 -225 537 -10 25 -26 63 -36 85 -10 22
-18 42 -19 45 0 3 -11 27 -23 54 -12 27 -22 51 -22 53 0 5 -9 26 -49 115 -11
26 -21 55 -21 63 0 8 -4 15 -10 15 -5 0 -10 8 -10 18 0 10 -4 22 -8 28 -5 5
-15 25 -22 44 -7 19 -24 59 -36 87 -13 29 -26 64 -30 78 -3 14 -10 28 -15 31
-5 3 -7 9 -4 14 3 4 -2 13 -10 20 -8 7 -15 18 -15 25 0 8 -16 51 -36 97 -20
46 -45 106 -56 133 -23 59 -37 91 -69 164 -13 30 -24 57 -25 60 -1 6 -25 65
-44 106 -21 46 -102 241 -105 250 -2 9 -13 35 -55 130 -9 22 -30 71 -45 109
-15 38 -31 77 -35 85 -5 9 -23 52 -41 96 -18 44 -42 103 -55 130 -12 28 -37
86 -54 130 -17 44 -42 103 -54 130 -12 28 -28 65 -35 82 l-13 33 -368 -2 -368
-1 -88 -211z m464 -909 c28 -72 78 -199 96 -242 8 -16 33 -79 56 -140 23 -60
48 -123 55 -140 7 -16 34 -84 60 -150 26 -66 52 -131 58 -145 6 -14 11 -27 12
-30 1 -3 5 -13 8 -22 4 -10 9 -25 12 -33 2 -8 6 -19 7 -23 3 -7 -781 -13 -794
-5 -5 3 40 124 82 218 5 11 19 45 31 75 12 30 28 69 35 87 8 17 14 34 14 37 0
3 11 30 25 60 14 30 25 57 25 61 0 3 7 22 16 43 10 20 18 42 19 48 2 6 11 29
20 50 26 59 40 92 70 169 40 104 58 145 64 145 3 0 16 -28 29 -63z"/>
<path d="M1098 12415 c-2 -2 -30 -6 -63 -9 -182 -16 -438 -83 -605 -157 -133
-59 -323 -175 -394 -240 -8 -7 18 -84 34 -99 7 -7 42 -84 40 -89 -1 -2 2 -7 7
-10 4 -3 39 -67 77 -141 38 -74 78 -151 90 -170 11 -19 20 -37 19 -40 -1 -3 7
-20 17 -38 l19 -32 68 44 c172 111 416 198 561 200 17 1 32 4 32 7 0 7 311 3
350 -4 14 -2 54 -10 90 -17 80 -14 207 -54 280 -88 30 -14 57 -26 60 -27 38
-13 80 -37 80 -45 0 -6 5 -10 11 -10 34 0 199 -149 254 -231 16 -24 33 -46 36
-49 10 -8 79 -155 79 -168 0 -9 -165 -12 -705 -12 l-705 0 0 -57 c-1 -116 -2
-688 -1 -698 1 -7 245 -10 717 -10 393 0 720 -3 725 -6 6 -3 -2 -39 -20 -87
-105 -288 -346 -504 -660 -591 -41 -11 -77 -19 -79 -16 -3 3 -11 0 -19 -6 -7
-6 -13 -9 -13 -6 0 3 -17 1 -37 -4 -98 -25 -438 -17 -529 12 -17 5 -40 11 -50
13 -93 18 -237 76 -349 140 -38 22 -74 44 -80 49 -42 34 -79 55 -91 50 -7 -3
-13 -8 -12 -11 2 -8 -189 -391 -204 -409 -6 -7 -7 -13 -2 -13 5 0 4 -4 -1 -8
-6 -4 -36 -58 -67 -120 l-57 -112 22 -21 c49 -45 187 -125 317 -182 63 -28
270 -96 270 -90 0 4 5 2 12 -5 7 -7 23 -12 36 -12 13 0 31 -4 40 -9 9 -5 35
-12 56 -15 21 -4 48 -8 60 -11 100 -22 198 -30 396 -29 243 0 371 14 558 59
12 3 30 7 41 9 10 2 51 14 92 26 41 12 74 21 74 20 0 -1 25 9 55 22 30 14 57
25 60 26 39 7 226 102 310 157 133 88 250 192 347 310 94 115 88 107 103 136
7 13 16 26 19 29 17 14 131 244 131 263 0 7 4 17 9 23 16 17 84 258 96 339 4
22 9 49 12 60 3 11 7 31 8 45 2 14 6 52 10 85 15 125 9 449 -11 561 -28 159
-76 340 -105 399 -6 12 -11 27 -12 36 -7 42 -164 332 -196 359 -3 3 -18 23
-33 45 -26 38 -40 55 -114 136 -47 52 -133 130 -189 171 -27 21 -54 41 -60 45
-5 5 -32 23 -60 40 -27 18 -56 37 -62 43 -7 6 -13 8 -13 4 0 -3 -7 -1 -15 6
-17 14 -145 80 -156 80 -3 0 -28 10 -55 22 -27 12 -53 23 -59 24 -5 1 -36 12
-67 23 -32 11 -58 18 -58 16 0 -3 -12 0 -27 6 -16 6 -37 13 -48 15 -53 12
-119 24 -162 30 -26 3 -52 9 -57 12 -10 6 -472 12 -478 7z"/>
<path d="M7928 12415 c-3 -3 -65 -12 -144 -20 -34 -3 -77 -12 -156 -31 -10 -2
-28 -6 -40 -9 -32 -7 -188 -56 -218 -68 -14 -6 -27 -11 -30 -12 -21 -7 -77
-32 -140 -62 -204 -98 -425 -269 -565 -438 -28 -33 -54 -65 -60 -71 -51 -58
-217 -343 -215 -369 0 -3 -6 -18 -13 -33 -14 -27 -76 -201 -82 -231 -53 -244
-59 -298 -59 -526 0 -174 6 -253 30 -375 3 -14 8 -42 11 -62 3 -21 8 -38 12
-38 3 0 7 -10 8 -23 3 -31 8 -50 14 -62 3 -5 12 -32 19 -60 7 -27 16 -54 20
-60 4 -5 15 -32 25 -60 22 -62 104 -225 122 -243 7 -7 13 -17 13 -22 0 -4 36
-55 79 -113 92 -123 204 -235 316 -318 44 -32 85 -63 92 -69 7 -5 17 -10 23
-10 5 0 10 -4 10 -10 0 -5 7 -10 15 -10 8 0 15 -3 15 -7 0 -5 25 -19 55 -33
30 -14 55 -28 55 -32 0 -5 9 -8 20 -8 11 0 20 -4 20 -9 0 -5 8 -11 18 -14 9
-3 64 -23 122 -45 109 -42 238 -80 330 -97 84 -15 127 -23 140 -24 8 0 44 -4
80 -8 132 -15 451 -8 570 12 14 2 41 7 60 10 115 19 319 79 425 125 129 55
342 176 383 217 7 7 16 13 20 13 4 0 25 16 47 35 22 19 43 35 48 35 4 0 5 5 2
10 -3 6 -1 10 5 10 12 0 132 120 195 195 53 62 135 181 135 195 0 5 3 10 8 10
4 0 12 10 18 23 6 12 31 60 54 107 23 47 43 90 44 95 2 6 10 27 19 48 19 45
56 160 63 197 3 14 8 34 11 45 8 25 11 38 19 95 3 25 8 48 10 52 10 16 18 164
19 323 0 181 -7 269 -30 385 -3 14 -8 37 -10 51 -14 76 -99 335 -123 374 -4 6
-7 15 -8 20 -2 16 -111 201 -152 258 -152 213 -358 392 -591 515 -82 43 -233
109 -266 116 -5 2 -41 12 -80 24 -79 24 -227 57 -295 66 -25 4 -61 9 -80 12
-40 5 -457 14 -462 9z m312 -769 c30 -3 66 -7 80 -10 59 -13 80 -18 87 -18 17
-1 151 -52 198 -76 111 -55 236 -159 324 -266 36 -44 101 -149 101 -163 0 -7
3 -13 8 -13 4 0 12 -15 18 -32 6 -18 23 -63 37 -100 14 -38 23 -68 21 -68 -2
0 1 -12 7 -27 6 -16 12 -41 15 -58 2 -16 7 -50 11 -75 20 -130 0 -438 -34
-520 -3 -8 -7 -19 -7 -25 -2 -17 -38 -116 -52 -144 -8 -14 -14 -32 -14 -38 0
-7 -4 -13 -10 -13 -5 0 -10 -6 -10 -14 0 -24 -108 -168 -168 -224 -55 -52
-210 -162 -228 -162 -5 0 -21 -6 -35 -14 -44 -23 -139 -53 -224 -71 -88 -20
-315 -28 -386 -15 -24 5 -61 11 -81 14 -20 3 -56 13 -80 21 -24 9 -47 17 -53
19 -63 19 -205 93 -252 131 -118 95 -177 157 -243 255 -48 71 -120 207 -113
214 3 3 1 11 -4 18 -11 15 -43 110 -49 148 -2 14 -6 34 -8 45 -25 113 -25 302
0 444 18 103 72 259 116 334 15 26 28 50 28 53 0 3 5 10 10 17 6 7 27 34 48
61 42 56 104 119 152 156 18 14 38 30 44 35 23 21 96 65 96 58 0 -5 4 -3 8 3
8 12 171 80 212 88 14 3 54 11 90 19 36 8 105 15 155 16 49 1 91 4 93 5 2 2
11 2 20 0 9 -2 42 -6 72 -8z"/>
<path d="M17865 12372 c-1 -2 -63 -5 -136 -7 -243 -8 -401 -15 -409 -20 -9 -5
-5 -3543 4 -3552 17 -18 223 -26 706 -27 396 -1 528 3 633 20 23 4 51 8 63 9
18 2 73 13 149 30 129 27 379 141 443 202 7 7 17 13 22 13 11 0 190 179 190
190 0 5 7 15 15 23 37 38 114 203 141 304 47 181 50 423 5 571 -5 17 -8 32 -6
32 10 0 -61 154 -94 204 -42 65 -42 66 -122 145 -89 89 -95 93 -140 116 -19
10 -37 22 -40 27 -3 5 -9 9 -13 8 -14 -4 -66 23 -66 34 0 6 13 19 28 28 16 10
46 33 68 52 21 19 44 39 49 44 17 15 69 76 96 112 32 43 101 170 93 170 -4 0
-2 6 4 13 9 10 32 83 31 97 0 3 4 17 9 31 23 59 34 301 18 387 -3 18 -9 47
-12 65 -24 134 -104 279 -214 386 -37 36 -175 131 -191 131 -5 0 -9 5 -9 10 0
6 -7 10 -15 10 -8 0 -29 8 -47 18 -36 20 -148 58 -160 54 -5 -1 -8 3 -8 9 0 5
-4 8 -9 5 -5 -4 -22 -2 -36 4 -15 6 -42 12 -59 14 -17 3 -43 7 -56 10 -30 7
-89 16 -150 23 -47 5 -769 10 -775 5z m655 -773 c121 -32 207 -93 246 -174 15
-32 19 -62 19 -145 0 -94 -3 -110 -27 -155 -42 -79 -110 -130 -218 -163 -8 -2
-101 -6 -206 -9 l-191 -5 1 320 c1 176 4 323 7 326 3 4 35 9 70 13 35 3 65 6
66 7 9 7 196 -6 233 -15z m80 -1384 c19 -4 42 -9 50 -12 8 -3 20 -7 26 -8 26
-6 120 -58 142 -78 47 -44 75 -116 78 -199 4 -149 -49 -250 -168 -317 -95 -54
-159 -68 -304 -69 -168 0 -274 16 -283 43 -5 15 -7 640 -2 653 2 5 428 -7 461
-13z"/>
<path d="M3499 12351 c-5 -19 -3 -3561 1 -3562 3 -1 188 -2 411 -3 l407 -1 -2
75 c-1 41 2 80 7 87 5 7 5 18 1 25 -10 16 -11 328 -1 335 4 2 4 9 0 15 -9 15
-8 191 1 206 4 7 4 12 -1 12 -4 0 -7 75 -5 167 3 201 3 169 0 276 -2 49 0 91
5 94 4 2 4 9 0 16 -9 15 -10 177 0 177 5 0 5 5 1 12 -4 7 -8 54 -8 104 -1 69
2 90 11 87 7 -3 10 -9 7 -14 -3 -5 -2 -9 3 -9 4 0 19 -17 33 -38 14 -20 27
-39 30 -42 3 -3 27 -34 52 -70 79 -109 116 -161 188 -260 38 -52 87 -119 107
-148 21 -30 45 -61 53 -71 8 -9 32 -42 53 -73 34 -51 51 -73 87 -115 5 -7 10
-14 10 -17 0 -5 86 -123 115 -158 7 -9 22 -29 32 -45 10 -15 21 -32 26 -38 4
-5 21 -28 37 -50 16 -22 33 -45 37 -50 60 -78 93 -126 93 -134 0 -5 3 -11 8
-13 12 -5 72 -85 72 -96 0 -6 3 -12 8 -14 4 -1 32 -37 62 -78 30 -41 58 -76
62 -78 5 -2 8 -9 8 -15 1 -7 9 -22 20 -35 l18 -22 522 2 522 3 -29 36 c-15 20
-35 47 -43 59 -8 12 -20 28 -25 34 -6 6 -24 29 -40 51 -17 22 -36 46 -43 54
-7 8 -21 26 -30 40 -9 14 -25 35 -34 46 -9 11 -50 65 -92 120 -41 55 -82 107
-90 116 -9 9 -16 19 -16 23 0 4 -6 13 -12 20 -7 7 -23 26 -35 42 -13 16 -56
73 -98 126 -41 54 -75 102 -75 107 0 5 -4 11 -8 13 -4 2 -23 23 -42 48 -19 25
-37 47 -40 50 -3 3 -17 21 -30 40 -14 19 -35 46 -47 60 -13 14 -23 28 -23 31
0 4 -16 24 -35 45 -19 22 -35 42 -35 45 0 3 -8 15 -17 27 -10 11 -26 31 -35
44 -10 13 -81 106 -158 208 -78 102 -151 198 -163 214 -12 16 -34 45 -50 65
-15 20 -35 46 -45 59 -9 13 -24 31 -32 41 -43 49 -45 42 40 146 45 54 88 104
96 112 8 8 14 17 14 21 0 4 19 28 43 54 23 26 50 57 60 70 10 13 31 39 47 58
133 162 249 304 270 330 14 17 36 43 49 58 13 15 57 67 97 117 169 208 196
240 205 243 5 2 9 10 9 17 0 7 4 15 8 17 5 2 41 44 81 93 40 50 87 106 105
125 17 19 43 51 58 70 15 19 38 49 52 65 14 17 36 42 48 57 13 14 23 30 23 35
0 4 -219 8 -487 9 l-488 1 -67 -88 c-38 -48 -77 -100 -88 -115 -11 -16 -53
-70 -92 -121 -40 -52 -73 -98 -73 -102 0 -5 -4 -11 -8 -13 -5 -1 -42 -48 -83
-103 -40 -55 -76 -102 -80 -105 -3 -3 -68 -88 -144 -190 -77 -102 -143 -189
-147 -195 -5 -5 -54 -71 -110 -145 -256 -340 -281 -372 -288 -359 -5 7 -5 21
-1 32 4 11 4 39 1 63 -4 23 -3 49 1 56 4 8 4 20 0 27 -5 7 -5 28 -1 47 4 19 5
34 1 34 -7 0 -5 196 3 217 3 7 2 13 -2 13 -4 0 -7 27 -7 60 0 33 3 60 7 60 4
0 5 6 2 14 -9 23 -10 106 -1 106 5 0 5 4 2 10 -3 5 -6 40 -5 77 1 38 1 77 0
88 0 11 0 43 0 70 1 28 1 57 0 65 0 8 0 51 1 95 0 44 0 87 0 95 -1 8 -1 38 -1
65 1 28 1 57 1 65 -1 8 -1 51 -2 96 l-1 80 -409 0 c-225 1 -410 -2 -410 -5z"/>
<path d="M10386 12351 c-2 -6 0 -3535 3 -3556 1 -6 144 -10 408 -10 l408 0 5
720 5 720 653 0 c358 0 652 -2 653 -5 6 -34 2 -288 -4 -297 -5 -7 -6 -13 -1
-13 5 0 9 -249 9 -562 l0 -563 410 0 410 0 0 1785 0 1785 -410 0 -410 0 0
-677 c0 -372 -3 -679 -6 -683 -5 -4 -973 -8 -1281 -5 l-28 0 0 683 0 684 -410
0 c-226 0 -412 -3 -414 -6z"/>
<path d="M13761 12341 c-8 -18 -7 -81 2 -105 4 -9 3 -16 -1 -16 -9 0 -7 -115
3 -129 3 -6 2 -11 -2 -11 -5 0 -8 -12 -7 -27 4 -46 5 -76 1 -108 -1 -16 1 -38
5 -47 5 -9 5 -19 1 -21 -7 -4 -9 -92 -3 -107 1 -3 1 -9 0 -15 -5 -24 -2 -154
4 -164 4 -6 4 -11 -1 -11 -9 0 -8 -114 2 -129 3 -6 2 -11 -2 -11 -5 0 -8 -12
-7 -27 4 -46 5 -76 1 -108 -1 -16 1 -38 5 -47 5 -9 5 -19 1 -21 -7 -4 -9 -92
-3 -107 1 -3 1 -9 0 -15 -6 -29 -4 -135 3 -135 5 0 5 -5 2 -11 -10 -16 -12
-69 -4 -75 5 -3 6 -10 3 -17 -9 -24 -10 -87 -2 -87 5 0 5 -8 1 -17 -10 -22 -9
-105 0 -120 4 -7 4 -14 -1 -17 -5 -3 -7 -22 -4 -43 2 -21 3 -44 3 -50 -1 -13
-1 -108 0 -140 0 -10 -1 -33 -3 -50 -2 -18 0 -33 5 -33 4 0 5 -5 2 -11 -11
-16 -12 -69 -2 -69 4 0 5 -5 2 -11 -11 -16 -12 -69 -2 -69 4 0 5 -5 1 -11 -10
-16 -11 -130 -1 -136 4 -2 5 -9 1 -14 -10 -17 -10 -78 0 -72 5 4 6 1 2 -5 -10
-17 -13 -92 -3 -92 4 0 5 -5 1 -11 -10 -17 -10 -138 0 -132 5 4 6 1 2 -5 -10
-17 -13 -92 -3 -92 4 0 4 -8 0 -17 -5 -10 -7 -40 -5 -68 4 -70 4 -76 0 -112
-2 -18 0 -33 5 -33 4 0 5 -5 2 -11 -11 -16 -12 -69 -2 -69 4 0 5 -5 2 -11 -11
-16 -12 -69 -3 -69 5 0 5 -8 1 -17 -10 -21 -9 -195 1 -211 3 -6 3 -13 -2 -16
-10 -6 -6 -71 4 -88 4 -6 3 -9 -2 -5 -10 6 -10 -61 1 -71 3 -4 167 -8 364 -10
l358 -2 51 72 c89 126 230 322 244 338 7 8 18 22 23 32 6 9 45 65 88 123 42
58 77 110 77 115 0 4 7 10 15 14 8 3 15 12 15 20 0 8 3 16 8 18 7 3 155 206
261 358 25 36 48 67 51 70 4 3 26 34 51 69 134 194 383 536 391 539 4 2 8 10
8 17 0 7 3 15 8 17 4 2 30 35 57 73 27 39 53 72 57 73 4 2 8 8 8 14 0 8 46 75
61 88 3 3 29 40 59 82 29 43 56 76 58 73 3 -3 6 -499 6 -1102 l1 -1098 410 0
410 0 0 1785 0 1785 -363 1 -363 0 -47 -65 c-49 -69 -102 -142 -128 -176 -8
-11 -23 -32 -32 -47 -9 -16 -20 -28 -24 -28 -4 0 -8 -5 -8 -10 0 -6 -21 -39
-47 -74 -27 -35 -55 -74 -63 -86 -24 -36 -139 -193 -155 -212 -8 -10 -13 -18
-10 -18 3 0 -2 -8 -11 -17 -9 -10 -102 -137 -206 -283 -104 -146 -198 -275
-209 -288 -10 -12 -19 -24 -19 -27 0 -3 -26 -40 -57 -84 -32 -43 -65 -89 -73
-102 -8 -12 -23 -31 -32 -41 -10 -10 -18 -20 -18 -23 0 -3 -19 -32 -42 -63
-24 -31 -79 -109 -125 -172 -45 -63 -86 -120 -91 -125 -5 -6 -17 -24 -28 -40
-10 -17 -23 -35 -29 -41 -5 -6 -37 -50 -70 -97 -33 -48 -62 -87 -65 -87 -3 0
-6 493 -5 1096 0 603 -2 1099 -5 1103 -3 5 -186 8 -408 8 -356 -1 -404 -3
-411 -16z"/>
<path d="M21133 12301 c-14 -31 -29 -67 -35 -81 -6 -14 -18 -38 -26 -55 -9
-16 -16 -32 -15 -35 1 -3 -6 -21 -14 -40 -8 -19 -16 -40 -17 -46 -1 -7 -7 -18
-14 -26 -6 -8 -13 -23 -15 -34 -2 -10 -10 -35 -19 -54 -8 -19 -27 -64 -42
-100 -15 -36 -31 -74 -36 -85 -28 -64 -115 -270 -115 -275 -1 -3 -9 -23 -19
-45 -10 -22 -33 -77 -51 -122 -19 -45 -40 -97 -48 -115 -8 -18 -38 -89 -67
-158 -29 -69 -58 -138 -65 -155 -7 -16 -36 -86 -64 -155 -29 -69 -58 -138 -65
-155 -7 -16 -26 -61 -42 -100 -15 -38 -31 -72 -34 -75 -3 -3 -6 -12 -8 -20 -2
-8 -9 -28 -17 -45 -7 -16 -36 -86 -65 -155 -29 -69 -58 -138 -65 -155 -7 -16
-82 -194 -165 -395 -84 -201 -159 -381 -168 -400 -9 -19 -17 -37 -17 -40 -2
-6 2 3 -91 -217 -42 -100 -67 -174 -61 -174 39 -4 800 -3 807 1 6 4 137 317
144 345 1 6 10 28 20 49 9 22 19 50 22 63 4 13 10 26 15 29 5 3 7 10 4 15 -4
5 -1 9 6 9 7 0 10 3 6 6 -3 3 7 36 22 72 35 83 44 106 45 112 1 3 7 14 13 25
11 20 20 20 715 19 386 -1 708 -2 715 -3 6 0 15 -11 18 -23 4 -13 15 -42 26
-65 10 -24 19 -47 19 -53 0 -6 4 -18 9 -28 21 -39 61 -133 61 -143 0 -5 10
-31 21 -57 12 -25 22 -51 23 -57 1 -5 7 -20 14 -32 7 -12 12 -29 12 -37 0 -9
4 -16 10 -16 5 0 9 -3 8 -7 -3 -13 48 -148 77 -203 l14 -25 434 0 435 0 -15
35 c-8 19 -35 85 -60 145 -50 123 -116 279 -144 342 -11 24 -19 45 -19 48 0 2
-13 34 -30 70 -16 36 -30 67 -30 69 0 2 -7 20 -15 40 -8 20 -14 37 -13 38 1 2
-5 14 -12 28 -8 14 -15 27 -16 30 0 3 -9 23 -18 45 -10 22 -51 121 -93 220
-41 99 -80 194 -88 210 -13 29 -36 84 -40 95 -2 5 -9 22 -50 120 -41 98 -48
115 -50 120 -1 3 -6 16 -12 30 -79 186 -185 437 -187 445 -4 13 -18 48 -46
110 -32 73 -65 152 -90 215 -12 30 -33 79 -46 108 -13 29 -24 55 -24 57 0 3
-9 27 -21 53 -26 57 -28 62 -79 185 -59 142 -63 151 -65 157 -1 3 -7 16 -13
30 -10 22 -103 244 -169 405 -14 33 -31 74 -39 91 l-15 30 -366 0 -366 0 -24
-55z m457 -1216 c39 -99 88 -220 107 -270 20 -49 41 -103 48 -120 7 -16 25
-61 40 -100 15 -38 33 -83 40 -100 14 -31 58 -147 69 -178 5 -17 -5 -18 -167
-17 -94 1 -176 0 -182 -1 -5 -1 -14 -1 -20 0 -11 3 -286 3 -300 0 -5 -1 -14 0
-20 1 -5 1 -31 2 -57 1 -27 -1 -48 2 -48 7 0 7 80 210 123 312 5 14 11 30 13
35 4 14 53 134 70 172 8 18 21 51 29 73 8 22 21 55 29 73 7 17 31 75 51 127
21 52 43 107 50 122 8 15 17 42 20 60 l7 32 13 -25 c7 -13 45 -105 85 -204z"/>
</g>
</svg>
